<svg xmlns="http://www.w3.org/2000/svg" xmlns:xlink="http://www.w3.org/1999/xlink" width="500" zoomAndPan="magnify" viewBox="0 0 375 374.999991" height="500" preserveAspectRatio="xMidYMid meet" version="1.0"><defs><g/></defs><rect x="-37.5" width="450" fill="#ffffff" y="-37.499999" height="449.999989" fill-opacity="1"/><rect x="-37.5" width="450" fill="#fff248" y="-37.499999" height="449.999989" fill-opacity="1"/><g fill="#000000" fill-opacity="1"><g transform="translate(73.710938, 200.999987)"><g><path d="M 4.40625 -30.625 L 8.578125 -30.625 L 8.578125 -3.484375 L 23.359375 -3.484375 L 23.359375 0 L 4.40625 0 Z M 4.40625 -30.625 "/></g></g><g transform="translate(98.997069, 200.999987)"><g><path d="M 14.390625 -11.546875 L 13.140625 -11.546875 C 10.941406 -11.546875 9.285156 -11.160156 8.171875 -10.390625 C 7.054688 -9.617188 6.5 -8.46875 6.5 -6.9375 C 6.5 -5.550781 6.914062 -4.472656 7.75 -3.703125 C 8.582031 -2.941406 9.738281 -2.5625 11.21875 -2.5625 C 13.289062 -2.5625 14.921875 -3.28125 16.109375 -4.71875 C 17.304688 -6.164062 17.910156 -8.160156 17.921875 -10.703125 L 17.921875 -11.546875 Z M 21.71875 -13.109375 L 21.71875 0 L 17.921875 0 L 17.921875 -3.40625 C 17.117188 -2.039062 16.101562 -1.03125 14.875 -0.375 C 13.65625 0.269531 12.171875 0.59375 10.421875 0.59375 C 8.078125 0.59375 6.207031 -0.0625 4.8125 -1.375 C 3.425781 -2.695312 2.734375 -4.46875 2.734375 -6.6875 C 2.734375 -9.238281 3.585938 -11.175781 5.296875 -12.5 C 7.015625 -13.832031 9.535156 -14.5 12.859375 -14.5 L 17.921875 -14.5 L 17.921875 -15.09375 C 17.910156 -16.925781 17.445312 -18.253906 16.53125 -19.078125 C 15.613281 -19.910156 14.148438 -20.328125 12.140625 -20.328125 C 10.859375 -20.328125 9.5625 -20.140625 8.25 -19.765625 C 6.9375 -19.398438 5.65625 -18.863281 4.40625 -18.15625 L 4.40625 -21.921875 C 5.800781 -22.453125 7.140625 -22.847656 8.421875 -23.109375 C 9.703125 -23.378906 10.941406 -23.515625 12.140625 -23.515625 C 14.035156 -23.515625 15.65625 -23.234375 17 -22.671875 C 18.351562 -22.117188 19.445312 -21.28125 20.28125 -20.15625 C 20.800781 -19.476562 21.171875 -18.632812 21.390625 -17.625 C 21.609375 -16.625 21.71875 -15.117188 21.71875 -13.109375 Z M 21.71875 -13.109375 "/></g></g><g transform="translate(124.2832, 200.999987)"><g><path d="M 17.59375 -7.390625 C 16.96875 -5.785156 16.171875 -3.675781 15.203125 -1.0625 C 13.847656 2.539062 12.9375 4.738281 12.46875 5.53125 C 11.84375 6.601562 11.054688 7.40625 10.109375 7.9375 C 9.171875 8.46875 8.070312 8.734375 6.8125 8.734375 L 3.78125 8.734375 L 3.78125 5.578125 L 6.015625 5.578125 C 7.117188 5.578125 7.984375 5.253906 8.609375 4.609375 C 9.242188 3.972656 10.046875 2.3125 11.015625 -0.375 L 2.140625 -22.96875 L 6.125 -22.96875 L 12.9375 -5 L 19.640625 -22.96875 L 23.640625 -22.96875 Z M 17.59375 -7.390625 "/></g></g><g transform="translate(149.569331, 200.999987)"><g><path d="M 22.96875 -13.375 L 22.96875 -11.53125 L 6.625 -11.53125 L 6.625 -11.40625 C 6.507812 -8.269531 7.101562 -6.019531 8.40625 -4.65625 C 9.71875 -3.289062 11.566406 -2.609375 13.953125 -2.609375 C 15.148438 -2.609375 16.40625 -2.796875 17.71875 -3.171875 C 19.03125 -3.554688 20.429688 -4.140625 21.921875 -4.921875 L 21.921875 -1.171875 C 20.484375 -0.578125 19.097656 -0.132812 17.765625 0.15625 C 16.429688 0.445312 15.144531 0.59375 13.90625 0.59375 C 10.332031 0.59375 7.539062 -0.472656 5.53125 -2.609375 C 3.519531 -4.753906 2.515625 -7.707031 2.515625 -11.46875 C 2.515625 -15.125 3.5 -18.046875 5.46875 -20.234375 C 7.4375 -22.421875 10.0625 -23.515625 13.34375 -23.515625 C 16.269531 -23.515625 18.578125 -22.523438 20.265625 -20.546875 C 21.960938 -18.566406 22.863281 -16.175781 22.96875 -13.375 Z M 19.203125 -14.484375 C 19.035156 -16.066406 18.453125 -17.4375 17.453125 -18.59375 C 16.460938 -19.75 15.039062 -20.328125 13.1875 -20.328125 C 11.363281 -20.328125 9.863281 -19.722656 8.6875 -18.515625 C 7.519531 -17.316406 6.878906 -15.960938 6.765625 -14.453125 Z M 19.203125 -14.484375 "/></g></g><g transform="translate(174.855462, 200.999987)"><g><path d="M 23.6875 -18.234375 C 22.882812 -18.859375 22.0625 -19.3125 21.21875 -19.59375 C 20.382812 -19.882812 19.472656 -20.03125 18.484375 -20.03125 C 16.128906 -20.03125 14.328125 -19.289062 13.078125 -17.8125 C 11.835938 -16.34375 11.21875 -14.210938 11.21875 -11.421875 L 11.21875 0 L 7.421875 0 L 7.421875 -22.96875 L 11.21875 -22.96875 L 11.21875 -18.484375 C 11.84375 -20.109375 12.804688 -21.351562 14.109375 -22.21875 C 15.421875 -23.082031 16.972656 -23.515625 18.765625 -23.515625 C 19.691406 -23.515625 20.554688 -23.398438 21.359375 -23.171875 C 22.171875 -22.941406 22.945312 -22.582031 23.6875 -22.09375 Z M 23.6875 -18.234375 "/></g></g><g transform="translate(200.141594, 200.999987)"><g><path d="M 8.9375 -3.40625 C 12.425781 -3.40625 14.859375 -4.257812 16.234375 -5.96875 C 17.617188 -7.6875 18.3125 -10.789062 18.3125 -15.28125 C 18.3125 -19.800781 17.625 -22.921875 16.25 -24.640625 C 14.875 -26.359375 12.4375 -27.21875 8.9375 -27.21875 L 6.96875 -27.21875 L 6.96875 -3.40625 Z M 9.03125 -30.625 C 13.695312 -30.625 17.140625 -29.378906 19.359375 -26.890625 C 21.578125 -24.398438 22.6875 -20.53125 22.6875 -15.28125 C 22.6875 -10.050781 21.578125 -6.195312 19.359375 -3.71875 C 17.140625 -1.238281 13.695312 0 9.03125 0 L 2.8125 0 L 2.8125 -30.625 Z M 9.03125 -30.625 "/></g></g><g transform="translate(225.427725, 200.999987)"><g><path d="M 14.390625 -11.546875 L 13.140625 -11.546875 C 10.941406 -11.546875 9.285156 -11.160156 8.171875 -10.390625 C 7.054688 -9.617188 6.5 -8.46875 6.5 -6.9375 C 6.5 -5.550781 6.914062 -4.472656 7.75 -3.703125 C 8.582031 -2.941406 9.738281 -2.5625 11.21875 -2.5625 C 13.289062 -2.5625 14.921875 -3.28125 16.109375 -4.71875 C 17.304688 -6.164062 17.910156 -8.160156 17.921875 -10.703125 L 17.921875 -11.546875 Z M 21.71875 -13.109375 L 21.71875 0 L 17.921875 0 L 17.921875 -3.40625 C 17.117188 -2.039062 16.101562 -1.03125 14.875 -0.375 C 13.65625 0.269531 12.171875 0.59375 10.421875 0.59375 C 8.078125 0.59375 6.207031 -0.0625 4.8125 -1.375 C 3.425781 -2.695312 2.734375 -4.46875 2.734375 -6.6875 C 2.734375 -9.238281 3.585938 -11.175781 5.296875 -12.5 C 7.015625 -13.832031 9.535156 -14.5 12.859375 -14.5 L 17.921875 -14.5 L 17.921875 -15.09375 C 17.910156 -16.925781 17.445312 -18.253906 16.53125 -19.078125 C 15.613281 -19.910156 14.148438 -20.328125 12.140625 -20.328125 C 10.859375 -20.328125 9.5625 -20.140625 8.25 -19.765625 C 6.9375 -19.398438 5.65625 -18.863281 4.40625 -18.15625 L 4.40625 -21.921875 C 5.800781 -22.453125 7.140625 -22.847656 8.421875 -23.109375 C 9.703125 -23.378906 10.941406 -23.515625 12.140625 -23.515625 C 14.035156 -23.515625 15.65625 -23.234375 17 -22.671875 C 18.351562 -22.117188 19.445312 -21.28125 20.28125 -20.15625 C 20.800781 -19.476562 21.171875 -18.632812 21.390625 -17.625 C 21.609375 -16.625 21.71875 -15.117188 21.71875 -13.109375 Z M 21.71875 -13.109375 "/></g></g><g transform="translate(250.713856, 200.999987)"><g><path d="M 12.59375 -29.484375 L 12.59375 -22.96875 L 21.171875 -22.96875 L 21.171875 -20.03125 L 12.59375 -20.03125 L 12.59375 -7.5625 C 12.59375 -5.875 12.910156 -4.691406 13.546875 -4.015625 C 14.191406 -3.347656 15.316406 -3.015625 16.921875 -3.015625 L 21.171875 -3.015625 L 21.171875 0 L 16.546875 0 C 13.722656 0 11.726562 -0.566406 10.5625 -1.703125 C 9.394531 -2.835938 8.8125 -4.789062 8.8125 -7.5625 L 8.8125 -20.03125 L 2.6875 -20.03125 L 2.6875 -22.96875 L 8.8125 -22.96875 L 8.8125 -29.484375 Z M 12.59375 -29.484375 "/></g></g><g transform="translate(275.999987, 200.999987)"><g><path d="M 14.390625 -11.546875 L 13.140625 -11.546875 C 10.941406 -11.546875 9.285156 -11.160156 8.171875 -10.390625 C 7.054688 -9.617188 6.5 -8.46875 6.5 -6.9375 C 6.5 -5.550781 6.914062 -4.472656 7.75 -3.703125 C 8.582031 -2.941406 9.738281 -2.5625 11.21875 -2.5625 C 13.289062 -2.5625 14.921875 -3.28125 16.109375 -4.71875 C 17.304688 -6.164062 17.910156 -8.160156 17.921875 -10.703125 L 17.921875 -11.546875 Z M 21.71875 -13.109375 L 21.71875 0 L 17.921875 0 L 17.921875 -3.40625 C 17.117188 -2.039062 16.101562 -1.03125 14.875 -0.375 C 13.65625 0.269531 12.171875 0.59375 10.421875 0.59375 C 8.078125 0.59375 6.207031 -0.0625 4.8125 -1.375 C 3.425781 -2.695312 2.734375 -4.46875 2.734375 -6.6875 C 2.734375 -9.238281 3.585938 -11.175781 5.296875 -12.5 C 7.015625 -13.832031 9.535156 -14.5 12.859375 -14.5 L 17.921875 -14.5 L 17.921875 -15.09375 C 17.910156 -16.925781 17.445312 -18.253906 16.53125 -19.078125 C 15.613281 -19.910156 14.148438 -20.328125 12.140625 -20.328125 C 10.859375 -20.328125 9.5625 -20.140625 8.25 -19.765625 C 6.9375 -19.398438 5.65625 -18.863281 4.40625 -18.15625 L 4.40625 -21.921875 C 5.800781 -22.453125 7.140625 -22.847656 8.421875 -23.109375 C 9.703125 -23.378906 10.941406 -23.515625 12.140625 -23.515625 C 14.035156 -23.515625 15.65625 -23.234375 17 -22.671875 C 18.351562 -22.117188 19.445312 -21.28125 20.28125 -20.15625 C 20.800781 -19.476562 21.171875 -18.632812 21.390625 -17.625 C 21.609375 -16.625 21.71875 -15.117188 21.71875 -13.109375 Z M 21.71875 -13.109375 "/></g></g></g></svg>