<svg xmlns="http://www.w3.org/2000/svg" version="1.1" xmlns:xlink="http://www.w3.org/1999/xlink" xmlns:svgjs="http://svgjs.dev/svgjs" width="1440" height="560" preserveAspectRatio="none" viewBox="0 0 1440 560"><g mask="url(&quot;#SvgjsMask1021&quot;)" fill="none"><rect width="1440" height="560" x="0" y="0" fill="rgba(255, 242, 72, 1)"></rect><path d="M1066 173L1065 318" stroke-width="6" stroke="url(&quot;#SvgjsLinearGradient1022&quot;)" stroke-linecap="round" class="Up"></path><path d="M1102 185L1101 453" stroke-width="6" stroke="url(&quot;#SvgjsLinearGradient1022&quot;)" stroke-linecap="round" class="Up"></path><path d="M80 186L79 -226" stroke-width="10" stroke="url(&quot;#SvgjsLinearGradient1023&quot;)" stroke-linecap="round" class="Down"></path><path d="M775 206L774 -66" stroke-width="10" stroke="url(&quot;#SvgjsLinearGradient1023&quot;)" stroke-linecap="round" class="Down"></path><path d="M750 386L749 542" stroke-width="8" stroke="url(&quot;#SvgjsLinearGradient1023&quot;)" stroke-linecap="round" class="Down"></path><path d="M472 406L471 809" stroke-width="6" stroke="url(&quot;#SvgjsLinearGradient1023&quot;)" stroke-linecap="round" class="Down"></path><path d="M1385 385L1384 158" stroke-width="6" stroke="url(&quot;#SvgjsLinearGradient1022&quot;)" stroke-linecap="round" class="Up"></path><path d="M1385 252L1384 438" stroke-width="8" stroke="url(&quot;#SvgjsLinearGradient1022&quot;)" stroke-linecap="round" class="Up"></path><path d="M299 314L298 632" stroke-width="8" stroke="url(&quot;#SvgjsLinearGradient1023&quot;)" stroke-linecap="round" class="Down"></path><path d="M861 14L860 289" stroke-width="6" stroke="url(&quot;#SvgjsLinearGradient1022&quot;)" stroke-linecap="round" class="Up"></path><path d="M288 372L287 758" stroke-width="6" stroke="url(&quot;#SvgjsLinearGradient1023&quot;)" stroke-linecap="round" class="Down"></path><path d="M1392 283L1391 -76" stroke-width="8" stroke="url(&quot;#SvgjsLinearGradient1022&quot;)" stroke-linecap="round" class="Up"></path><path d="M965 354L964 699" stroke-width="6" stroke="url(&quot;#SvgjsLinearGradient1022&quot;)" stroke-linecap="round" class="Up"></path><path d="M320 514L319 259" stroke-width="6" stroke="url(&quot;#SvgjsLinearGradient1023&quot;)" stroke-linecap="round" class="Down"></path><path d="M324 394L323 22" stroke-width="6" stroke="url(&quot;#SvgjsLinearGradient1023&quot;)" stroke-linecap="round" class="Down"></path><path d="M1158 234L1157 28" stroke-width="6" stroke="url(&quot;#SvgjsLinearGradient1023&quot;)" stroke-linecap="round" class="Down"></path><path d="M13 465L12 703" stroke-width="8" stroke="url(&quot;#SvgjsLinearGradient1022&quot;)" stroke-linecap="round" class="Up"></path><path d="M1203 280L1202 -100" stroke-width="10" stroke="url(&quot;#SvgjsLinearGradient1023&quot;)" stroke-linecap="round" class="Down"></path><path d="M888 89L887 -263" stroke-width="8" stroke="url(&quot;#SvgjsLinearGradient1022&quot;)" stroke-linecap="round" class="Up"></path><path d="M405 79L404 -228" stroke-width="8" stroke="url(&quot;#SvgjsLinearGradient1023&quot;)" stroke-linecap="round" class="Down"></path><path d="M452 292L451 -88" stroke-width="10" stroke="url(&quot;#SvgjsLinearGradient1023&quot;)" stroke-linecap="round" class="Down"></path><path d="M187 366L186 683" stroke-width="10" stroke="url(&quot;#SvgjsLinearGradient1022&quot;)" stroke-linecap="round" class="Up"></path><path d="M1062 138L1061 -152" stroke-width="10" stroke="url(&quot;#SvgjsLinearGradient1022&quot;)" stroke-linecap="round" class="Up"></path><path d="M753 381L752 152" stroke-width="10" stroke="url(&quot;#SvgjsLinearGradient1023&quot;)" stroke-linecap="round" class="Down"></path><path d="M1017 320L1016 115" stroke-width="10" stroke="url(&quot;#SvgjsLinearGradient1022&quot;)" stroke-linecap="round" class="Up"></path><path d="M792 115L791 -121" stroke-width="10" stroke="url(&quot;#SvgjsLinearGradient1022&quot;)" stroke-linecap="round" class="Up"></path><path d="M226 69L225 -279" stroke-width="10" stroke="url(&quot;#SvgjsLinearGradient1022&quot;)" stroke-linecap="round" class="Up"></path><path d="M1115 554L1114 187" stroke-width="8" stroke="url(&quot;#SvgjsLinearGradient1023&quot;)" stroke-linecap="round" class="Down"></path><path d="M1199 67L1198 220" stroke-width="8" stroke="url(&quot;#SvgjsLinearGradient1022&quot;)" stroke-linecap="round" class="Up"></path><path d="M76 545L75 161" stroke-width="6" stroke="url(&quot;#SvgjsLinearGradient1023&quot;)" stroke-linecap="round" class="Down"></path><path d="M93 236L92 428" stroke-width="8" stroke="url(&quot;#SvgjsLinearGradient1023&quot;)" stroke-linecap="round" class="Down"></path><path d="M29 229L28 606" stroke-width="10" stroke="url(&quot;#SvgjsLinearGradient1023&quot;)" stroke-linecap="round" class="Down"></path><path d="M517 199L516 397" stroke-width="8" stroke="url(&quot;#SvgjsLinearGradient1022&quot;)" stroke-linecap="round" class="Up"></path><path d="M652 187L651 -200" stroke-width="8" stroke="url(&quot;#SvgjsLinearGradient1023&quot;)" stroke-linecap="round" class="Down"></path><path d="M1077 47L1076 258" stroke-width="6" stroke="url(&quot;#SvgjsLinearGradient1023&quot;)" stroke-linecap="round" class="Down"></path><path d="M425 536L424 901" stroke-width="8" stroke="url(&quot;#SvgjsLinearGradient1023&quot;)" stroke-linecap="round" class="Down"></path></g><defs><mask id="SvgjsMask1021"><rect width="1440" height="560" fill="#ffffff"></rect></mask><linearGradient x1="0%" y1="100%" x2="0%" y2="0%" id="SvgjsLinearGradient1022"><stop stop-color="rgba(65, 202, 223, 0)" offset="0"></stop><stop stop-color="rgba(65, 202, 223, 1)" offset="1"></stop></linearGradient><linearGradient x1="0%" y1="0%" x2="0%" y2="100%" id="SvgjsLinearGradient1023"><stop stop-color="rgba(65, 202, 223, 0)" offset="0"></stop><stop stop-color="rgba(65, 202, 223, 1)" offset="1"></stop></linearGradient></defs></svg>