<svg xmlns="http://www.w3.org/2000/svg" version="1.1" xmlns:xlink="http://www.w3.org/1999/xlink" xmlns:svgjs="http://svgjs.dev/svgjs" width="1440" height="560" preserveAspectRatio="none" viewBox="0 0 1440 560"><g mask="url(&quot;#SvgjsMask1005&quot;)" fill="none"><rect width="1440" height="560" x="0" y="0" fill="rgba(65, 202, 223, 1)"></rect><path d="M 0,246 C 57.6,201 172.8,17.2 288,21 C 403.2,24.8 460.8,241.4 576,265 C 691.2,288.6 748.8,151.8 864,139 C 979.2,126.2 1036.8,220 1152,201 C 1267.2,182 1382.4,75.4 1440,44L1440 560L0 560z" fill="rgba(67, 214, 237, 1)"></path><path d="M 0,406 C 96,412.2 288,455.2 480,437 C 672,418.8 768,300 960,315 C 1152,330 1344,472.6 1440,512L1440 560L0 560z" fill="rgba(59, 168, 185, 1)"></path></g><defs><mask id="SvgjsMask1005"><rect width="1440" height="560" fill="#ffffff"></rect></mask></defs></svg>