<svg xmlns="http://www.w3.org/2000/svg" version="1.1" xmlns:xlink="http://www.w3.org/1999/xlink" xmlns:svgjs="http://svgjs.dev/svgjs" width="1440" height="560" preserveAspectRatio="none" viewBox="0 0 1440 560"><g mask="url(&quot;#SvgjsMask1001&quot;)" fill="none"><rect width="1440" height="560" x="0" y="0" fill="rgba(255, 242, 72, 1)"></rect><path d="M0,545.502C102.502,532.999,132.346,394.548,209.334,325.73C270.326,271.21,353.668,249.022,403.906,184.458C463.372,108.034,535.18,20.882,521.082,-74.92C506.984,-170.721,401.254,-219.73,334.151,-289.543C271.021,-355.223,221.299,-434.048,138.785,-472.657C48.212,-515.036,-54.009,-537.894,-151.779,-516.91C-253.071,-495.17,-344.668,-435.648,-409.635,-354.951C-473.38,-275.771,-509.586,-174.833,-509.009,-73.184C-508.471,21.529,-454.159,103.784,-406.564,185.672C-363.202,260.278,-309.565,323.953,-244.947,381.144C-169.795,447.658,-99.621,557.654,0,545.502" fill="#ffed07"></path><path d="M1440 1091.674C1543.734 1097.275 1655.096 1086.1779999999999 1737.502 1022.922 1817.887 961.217 1858.365 858.405 1874.268 758.3240000000001 1888.0819999999999 671.388 1838.858 591.327 1819.7359999999999 505.402 1802.384 427.428 1804.433 347.199 1767.065 276.597 1722.531 192.457 1673.3029999999999 100.94099999999997 1585.807 63.42700000000002 1495.639 24.76800000000003 1392.618 50.565999999999974 1297.696 75.35700000000003 1200.402 100.767 1094.833 128.07100000000003 1033.416 207.69299999999998 972.876 286.179 978.094 394.115 975.393 493.2 972.957 582.5889999999999 987.163 668.736 1018.569 752.461 1051.946 841.4390000000001 1088.421 932.288 1162.451 991.875 1240.622 1054.795 1339.798 1086.2640000000001 1440 1091.674" fill="#fff789"></path></g><defs><mask id="SvgjsMask1001"><rect width="1440" height="560" fill="#ffffff"></rect></mask></defs></svg>