<svg xmlns="http://www.w3.org/2000/svg" version="1.1" xmlns:xlink="http://www.w3.org/1999/xlink" xmlns:svgjs="http://svgjs.dev/svgjs" width="1440" height="560" preserveAspectRatio="none" viewBox="0 0 1440 560"><g mask="url(&quot;#SvgjsMask1012&quot;)" fill="none"><rect width="1440" height="560" x="0" y="0" fill="rgba(0, 0, 0, 1)"></rect><path d="M 0,385 C 57.6,345.2 172.8,187.2 288,186 C 403.2,184.8 460.8,390 576,379 C 691.2,368 748.8,124.2 864,131 C 979.2,137.8 1036.8,387 1152,413 C 1267.2,439 1382.4,291.4 1440,261L1440 560L0 560z" fill="rgba(65, 202, 223, 1)"></path><path d="M 0,496 C 96,444.4 288,226 480,238 C 672,250 768,580.6 960,556 C 1152,531.4 1344,203.2 1440,115L1440 560L0 560z" fill="rgba(255, 242, 72, 1)"></path></g><defs><mask id="SvgjsMask1012"><rect width="1440" height="560" fill="#ffffff"></rect></mask></defs></svg>